<?xml version="1.0"?>
<svg xmlns="http://www.w3.org/2000/svg" viewBox="0 0 64 64" width="512" height="512"><path d="m32 3h25a4 4 0 0 1 4 4v40a4 4 0 0 1 -4 4h-25a0 0 0 0 1 0 0v-48a0 0 0 0 1 0 0z" fill="#d9d9d9"/><path d="m32 7h25v36h-25z" fill="#41bdf7"/><path d="m3 43.385 5.526-4.252a1.51 1.51 0 0 0 .063-2.343 16 16 0 0 1 -5.589-12.149v-3.256a17 17 0 0 1 10.527-15.72 17 17 0 0 1 12.946 0 17 17 0 0 1 10.527 15.72v3.615l3 5-5 2v2.4a5.211 5.211 0 0 1 -2.083 4.167 5.211 5.211 0 0 1 -4.256.917l-5.726-1.272a2 2 0 0 0 -1.683.39l-2.507 1.998a2 2 0 0 0 -.165 2.976l1.784 1.784a9 9 0 0 1 2.636 6.368v10.272h-21v-18z" fill="#f7ba41"/><path d="m36.827 19h-17.827l9 8 9-3v-2.615a16.983 16.983 0 0 0 -.173-2.385z" fill="#787878"/><path d="m32 51h9l5 6h11l4 4h-29z" fill="#d9d9d9"/><path d="m57.074 2h-25.074v2h25.074a3 3 0 0 1 3 3v40a3 3 0 0 1 -3 3h-25.074v2h8.606l3.333 4h-11.939v2h24.591l2.037 2h-26.628v2h29.074a1 1 0 0 0 .7-1.713l-4.073-4a1 1 0 0 0 -.701-.287h-10.458l-3.333-4h13.865a5.006 5.006 0 0 0 5-5v-40a5.006 5.006 0 0 0 -5-5z"/><path d="m7.938 37.549a.51.51 0 0 1 -.021.792l-5.527 4.251 1.22 1.585 5.526-4.251a2.509 2.509 0 0 0 .1-3.9 14.983 14.983 0 0 1 -5.236-11.385v-3.256c0-.466.025-.927.065-1.385h14.554l8.716 7.748a1 1 0 0 0 .981.2l7.761-2.587a.942.942 0 0 0 .066.153l2.4 3.993-3.911 1.563a1 1 0 0 0 -.632.93v2.4a4.209 4.209 0 0 1 -5.122 4.1l-5.726-1.272a2.983 2.983 0 0 0 -2.525.586l-2.506 2.005a3 3 0 0 0 -.248 4.464l1.784 1.784a7.948 7.948 0 0 1 2.343 5.661v10.272h2v-10.272a9.932 9.932 0 0 0 -2.929-7.071l-1.784-1.784a1 1 0 0 1 .083-1.488l2.506-2.006a1 1 0 0 1 .842-.2l5.727 1.273a6.208 6.208 0 0 0 7.555-6.052v-1.723l4.372-1.748a1 1 0 0 0 .485-1.444l-2.857-4.762v-3.338q0-.7-.053-1.385h6.053v-2h-6.33a17.892 17.892 0 0 0 -5.639-10h24.043v2h-6.074v2h6.074v2h-1.074v2h1.074v5h-4.074v2h4.074v2h-1.074v2h1.074v6h-1.074v2h1.074v7h-24.074v2h25.074a1 1 0 0 0 1-1v-36a1 1 0 0 0 -1-1h-25.074v1.973a18 18 0 0 0 -30 13.412v3.256a16.979 16.979 0 0 0 5.938 12.908zm28.062-16.164v1.894l-7.768 2.59-6.602-5.869h14.305c.04.458.065.919.065 1.385zm-22.092-14.795a16 16 0 0 1 21.728 11.41h-31.272a15.935 15.935 0 0 1 9.544-11.41z"/><path d="m30 21h2v2h-2z"/><path d="m40 10h4v2h-4z"/><path d="m46 10h2v2h-2z"/><path d="m40 14h2v2h-2z"/><path d="m44 14h2v2h-2z"/><path d="m48 14h5v2h-5z"/><path d="m44 25h2v2h-2z"/><path d="m48 25h5v2h-5z"/><path d="m44 29h7v2h-7z"/><path d="m44 33h4v2h-4z"/><path d="m50 33h3v2h-3z"/><path d="m53 29h2v2h-2z"/><path d="m44 21h2v2h-2z"/><path d="m48 21h2v2h-2z"/></svg>
