<?xml version="1.0" encoding="iso-8859-1"?>
<!-- Generator: Adobe Illustrator 19.0.0, SVG Export Plug-In . SVG Version: 6.00 Build 0)  -->
<svg version="1.1" id="Capa_1" xmlns="http://www.w3.org/2000/svg" xmlns:xlink="http://www.w3.org/1999/xlink" x="0px" y="0px"
	 viewBox="0 0 512 512" style="enable-background:new 0 0 512 512;" xml:space="preserve">
<path style="fill:#DAEFF6;" d="M256.427,51.2H42.667v264.533h48.384l20.224-20.224c5.973-5.939,15.625-5.914,21.564,0.06
	c0.009,0.009,0.017,0.017,0.026,0.026l6.571,6.571l6.485,6.485c1.988,1.997,3.379,4.506,4.011,7.253l0.512-0.171h318.891V51.2
	H256.427z"/>
<path style="fill:#6F6F6F;" d="M503.467,17.067v332.8H128l-0.853-0.853l18.773-18.773c3.789-3.729,5.316-9.182,4.011-14.336
	l0.512-0.171h318.891V51.2H42.667v264.533h48.384l-34.133,34.133H8.533v-332.8H503.467z"/>
<path style="fill:#5B5B5B;" d="M384,477.867v25.6H128v-25.6h42.325c9.591,0.017,17.391-7.748,17.408-17.34c0-0.026,0-0.043,0-0.068
	V349.867h136.533v110.592c-0.017,9.591,7.748,17.391,17.34,17.408c0.026,0,0.043,0,0.068,0H384z"/>
<path style="fill:#FFDB6F;" d="M316.928,134.4c11.913,14.14,18.441,32.034,18.432,50.517c0.145,20.122-7.569,39.501-21.504,54.016
	h-0.085c-0.375,0.444-0.777,0.879-1.195,1.28c-14.566,14.703-34.432,22.938-55.125,22.869c-35.61-0.102-66.773-23.945-76.203-58.283
	c-1.801-6.707-2.748-13.619-2.816-20.565c-0.162-42.965,34.534-77.918,77.5-78.08c0.162,0,0.333,0,0.495,0
	c20.941-0.043,41.037,8.286,55.808,23.125C313.89,130.901,315.452,132.617,316.928,134.4z"/>
<g>
	<rect x="247.467" y="125.867" style="fill:#002874;" width="85.333" height="17.067"/>
	<rect x="237.739" y="162.133" style="fill:#002874;" width="103.595" height="17.067"/>
	<polygon style="fill:#002874;" points="282.795,213.333 170.667,213.333 170.325,196.267 282.795,196.267 	"/>
	<rect x="199.595" y="162.133" style="fill:#002874;" width="19.115" height="17.067"/>
	<rect x="295.424" y="196.267" style="fill:#002874;" width="19.115" height="17.067"/>
	<polygon style="fill:#002874;" points="324.361,247.467 231.851,247.467 231.851,230.4 324.267,230.4 	"/>
</g>
<g>
	<path style="fill:#454545;" d="M503.467,8.533H8.533C3.823,8.533,0,12.356,0,17.067v332.8c0,4.71,3.823,8.533,8.533,8.533h48.384
		L76.8,341.333H17.067V25.6h477.867v315.733H128L102.4,358.4h401.067c4.71,0,8.533-3.823,8.533-8.533v-332.8
		C512,12.356,508.177,8.533,503.467,8.533z"/>
	
		<rect x="128.774" y="267.812" transform="matrix(-0.7071 0.7071 -0.7071 -0.7071 477.3509 354.9655)" style="fill:#454545;" width="72.772" height="17.067"/>
</g>
<path style="fill:#168DE2;" d="M256.427,85.333c-54.81,0.691-98.679,45.687-97.997,100.497
	c0.683,54.187,44.698,97.809,98.893,97.997h0.06c54.81-0.7,98.679-45.696,97.98-100.506
	C354.671,129.126,310.63,85.504,256.427,85.333z M313.856,238.933h-0.085c-0.375,0.444-0.777,0.879-1.195,1.28
	c-14.566,14.703-34.432,22.938-55.125,22.869c-35.61-0.102-66.773-23.945-76.203-58.283c-1.801-6.707-2.748-13.619-2.816-20.565
	c-0.162-42.965,34.534-77.918,77.5-78.08c0.162,0,0.333,0,0.495,0c20.941-0.043,41.037,8.286,55.808,23.125
	c1.655,1.621,3.217,3.337,4.693,5.12c11.913,14.14,18.441,32.034,18.432,50.517C335.505,205.039,327.791,224.418,313.856,238.933z"
	/>
<path style="fill:#002874;" d="M149.931,315.904c1.306,5.154-0.222,10.607-4.011,14.336l-18.773,18.773l-69.035,69.12
	l-34.731-34.731l33.536-33.536l34.133-34.133l20.224-20.224c5.973-5.939,15.625-5.914,21.564,0.06
	c0.009,0.009,0.017,0.017,0.026,0.026l6.571,6.571l6.485,6.485C147.908,310.647,149.299,313.156,149.931,315.904z"/>
<g>
</g>
<g>
</g>
<g>
</g>
<g>
</g>
<g>
</g>
<g>
</g>
<g>
</g>
<g>
</g>
<g>
</g>
<g>
</g>
<g>
</g>
<g>
</g>
<g>
</g>
<g>
</g>
<g>
</g>
</svg>
